<?xml version="1.0" encoding="UTF-8"?>
<!DOCTYPE svg PUBLIC "-//W3C//DTD SVG 1.1//EN" "http://www.w3.org/Graphics/SVG/1.1/DTD/svg11.dtd">
<svg version="1.1" xmlns="http://www.w3.org/2000/svg" xmlns:xlink="http://www.w3.org/1999/xlink" x="0" y="0" width="250" height="250" viewBox="0, 0, 250, 250">
  <g id="Layer_1">
    <g>
      <path d="M125,216.646 C74.386,216.646 33.354,175.614 33.354,125 C33.354,74.386 74.386,33.354 125,33.354 C175.614,33.354 216.646,74.386 216.646,125 C216.646,175.614 175.614,216.646 125,216.646 M125,12.5 C62.867,12.5 12.5,62.867 12.5,125 C12.5,187.133 62.867,237.5 125,237.5 C187.133,237.5 237.5,187.133 237.5,125 C237.5,62.867 187.133,12.5 125,12.5" fill="#ffffff"/>
      <path d="M77.632,96.908 C77.632,87.461 85.289,79.801 94.735,79.801 C104.185,79.801 111.842,87.461 111.842,96.908 C111.842,106.355 104.185,114.015 94.735,114.015 C85.289,114.015 77.632,106.355 77.632,96.908 M122.895,96.908 C122.895,81.356 110.287,68.752 94.735,68.752 C79.186,68.752 66.579,81.356 66.579,96.908 C66.579,112.46 79.186,125.065 94.735,125.065 C110.287,125.065 122.895,112.46 122.895,96.908" fill="#ffffff"/>
      <path d="M154.143,59.343 C146.344,59.343 140.002,65.686 140.002,73.487 L140.002,141.779 C140.002,153.019 130.853,162.167 119.607,162.167 C114.567,162.167 109.773,160.342 106.065,157.007 C103.391,153.966 99.445,152.167 95.394,152.167 C87.592,152.167 81.249,158.513 81.249,166.318 C81.249,169.894 82.531,173.277 85.066,176.083 C94.263,185.356 106.552,190.459 119.671,190.459 C146.552,190.459 168.426,168.595 168.426,141.713 L168.426,73.349 C168.176,65.496 161.906,59.343 154.143,59.343" fill="#ffffff"/>
    </g>
  </g>
</svg>
