<?xml version="1.0" encoding="utf-8"?>
<!-- Generator: Adobe Illustrator 19.1.0, SVG Export Plug-In . SVG Version: 6.00 Build 0)  -->
<svg version="1.1" baseProfile="tiny" xmlns="http://www.w3.org/2000/svg" xmlns:xlink="http://www.w3.org/1999/xlink" x="0px"
	 y="0px" viewBox="0 0 360 360" xml:space="preserve">
<g id="background">
	<circle cx="180" cy="180.5" r="171"/>
	<circle fill="#FFFFFF" cx="180" cy="180.5" r="139.3"/>
</g>
<g id="top_circle">
	<circle cx="134" cy="137.8" r="42.8"/>
	<circle fill="#FFFFFF" cx="134" cy="137.8" r="26"/>
</g>
<g id="the_j">
	<path stroke="#000000" stroke-width="20" stroke-miterlimit="10" d="M224.3,90.7c-6.4,0-11.5,5.2-11.5,11.5V206
		c0,22.7-18.4,41-41,41c-10.8,0-20.5-4.1-27.8-10.9c-2.1-2.6-5.4-4.3-9-4.3c-6.4,0-11.5,5.2-11.5,11.5c0,3,1.1,5.8,2.9,7.8l0,0
		c11.6,11.7,27.7,18.9,45.5,18.9c35.4,0,64.1-28.7,64.1-64.1V102.3C235.8,95.9,230.7,90.7,224.3,90.7z"/>
</g>
<g id="j_pieces" display="none">
	<path display="inline" fill="#ED1C24" d="M-98,136.6c-23.6,0-42.8,19.1-42.8,42.8s19.1,42.8,42.8,42.8s42.8-19.1,42.8-42.8
		S-74.4,136.6-98,136.6z M-98,206.7c-15.1,0-27.4-12.2-27.4-27.4S-113.1,152-98,152s27.4,12.2,27.4,27.4S-82.9,206.7-98,206.7z"/>
	<path display="inline" fill="none" d="M450.3,206.7c15.1,0,27.4-12.2,27.4-27.4h-54.7C422.9,194.5,435.2,206.7,450.3,206.7z"/>
	<circle display="inline" fill="#ED1C24" cx="483.7" cy="111" r="7.7"/>
	<circle display="inline" fill="#ED1C24" cx="424.1" cy="205.1" r="7.7"/>
	<path display="inline" fill="#ED1C24" d="M476,111v69.2c0,15.1-12.2,27.4-27.4,27.4c-7.6,0-14.5-3.1-19.4-8.1l-10.9,10.9
		c7.7,7.8,18.5,12.6,30.3,12.6c23.6,0,42.8-19.1,42.8-42.8V111H476z"/>
</g>
</svg>
